# xmcd
#
# Track frame offsets: 
#        150
#        18455
#        30713
#        50387
#        62236
#        78579
#        94788
#        105556
#        126132
#        146175
#        177027
#        187250
#        193965
#        215146
#        235864
#        253201
#        272839
#        294897
#
# Disc length: 4123 seconds
#
# Revision: 0
# Processed by: cddbd v1.5.1PL0 Copyright (c) Steve Scherf et al.
# Submitted via: ExactAudioCopy v0.95a5
#
DISCID=17101912
DTITLE=Dr. John - N'Awlinz: Dis Dat or d'Udda
DYEAR=2004
DGENRE=Blues
TTITLE0=Quatre Parishe
TTITLE1=When the Saints Go Marching In
TTITLE2=Lay My Burden Down
TTITLE3=Marie Laveau
TTITLE4=Dear Old Southland
TTITLE5=Dis, Dat or d'Udda
TTITLE6=Chickee le Pas
TTITLE7=Monkey - Dave Bartholomew
TTITLE8=Shango Tango
TTITLE9=I Ate Up the Apple Tree
TTITLE10=You Ain't Such a Much
TTITLE11=Life's a One Way Ticket
TTITLE12=Hen Layin' Rooster
TTITLE13=Stakalee
TTITLE14=Eh Las Bas
TTITLE15=St. James Infirmary - Eddie Bo
TTITLE16=Time Marches On
TTITLE17=I'm Goin' Home
EXTD=
EXTT0=
EXTT1=
EXTT2=
EXTT3=
EXTT4=
EXTT5=
EXTT6=
EXTT7=
EXTT8=
EXTT9=
EXTT10=
EXTT11=
EXTT12=
EXTT13=
EXTT14=
EXTT15=
EXTT16=
EXTT17=
PLAYORDER=
